<svg xmlns="http://www.w3.org/2000/svg" viewBox="0 0 283.74 75.27"><defs><style>.cls-1{fill:#ec008c;}</style></defs><g id="Layer_2" data-name="Layer 2"><g id="Logos"><path class="cls-1" d="M25.26,47.25V60.89c0,9.2-3.56,13.74-10.77,13.74H0V.63H14.33c7.2,0,10.76,4.55,10.76,13.75V25.27c0,6.55-1.74,9.83-4.88,11.31C23.6,38.06,25.26,41.23,25.26,47.25ZM13,10.57H8.78V32.14h3.89c2.48,0,3.64-1.59,3.64-4.65V14.8C16.31,12,15.24,10.57,13,10.57ZM8.78,64.7h4.39c2.23,0,3.31-1.38,3.31-4.23V46.41c0-3.17-1.16-4.65-3.64-4.65H8.78Z"/><path class="cls-1" d="M39.09.63V64.38h9.77V74.63H30.23V.63Z"/><path class="cls-1" d="M67.57,75.27H62.85c-7.2,0-10.76-4.55-10.76-13.74V13.74C52.09,4.55,55.65,0,62.85,0h4.72c7.21,0,10.77,4.55,10.77,13.74V61.53C78.34,70.72,74.78,75.27,67.57,75.27ZM66.17,9.94H64.34C62,9.94,61,11.31,61,14.27V61c0,3,1.08,4.33,3.39,4.33h1.83c2.23,0,3.31-1.37,3.31-4.33V14.27C69.48,11.31,68.4,9.94,66.17,9.94Z"/><path class="cls-1" d="M98.79,75.27H94.07c-7.2,0-10.76-4.55-10.76-13.74V13.74C83.31,4.55,86.87,0,94.07,0h4.72c7.21,0,10.77,4.55,10.77,13.74V61.53C109.56,70.72,106,75.27,98.79,75.27ZM97.39,9.94H95.56c-2.31,0-3.39,1.37-3.39,4.33V61c0,3,1.08,4.33,3.39,4.33h1.83c2.23,0,3.31-1.37,3.31-4.33V14.27C100.7,11.31,99.62,9.94,97.39,9.94Z"/><path class="cls-1" d="M152.37.63v74h-8.69V18.39l-6.3,56.24h-8.69l-6.38-57v57h-7.62V.63h13.25l5.55,53.81L139.21.63Z"/><path class="cls-1" d="M182.93,47.25V60.89c0,9.2-3.56,13.74-10.76,13.74h-14.5V.63H172c7.21,0,10.77,4.55,10.77,13.75V25.27c0,6.55-1.74,9.83-4.89,11.31C181.28,38.06,182.93,41.23,182.93,47.25ZM170.68,10.57h-4.23V32.14h3.89c2.49,0,3.65-1.59,3.65-4.65V14.8C174,12,172.91,10.57,170.68,10.57ZM166.45,64.7h4.39c2.24,0,3.31-1.38,3.31-4.23V46.41c0-3.17-1.16-4.65-3.64-4.65h-4.06Z"/><path class="cls-1" d="M203.22,75.27H198.5c-7.2,0-10.76-4.55-10.76-13.74V13.74C187.74,4.55,191.3,0,198.5,0h4.72C210.42,0,214,4.55,214,13.74V61.53C214,70.72,210.42,75.27,203.22,75.27ZM201.81,9.94H200c-2.32,0-3.39,1.37-3.39,4.33V61c0,3,1.07,4.33,3.39,4.33h1.82c2.24,0,3.31-1.37,3.31-4.33V14.27C205.12,11.31,204.05,9.94,201.81,9.94Z"/><path class="cls-1" d="M236.1,37.21l8.11,37.42H235.1L230.22,48.1,225,74.63h-8.53l8.12-36.47-8-37.53h9.11l4.8,26.43,5-26.43h8.53Z"/><path class="cls-1" d="M250.59,63.8h4.55v5.93h9.49V64h4.56v5.7h14.27v5H250.59Z"/><path class="cls-1" d="M283.46,56.22v5H250.59v-5Z"/><path class="cls-1" d="M250.59,48.12h28.32V42.57h4.55V53.16H250.59Z"/><path class="cls-1" d="M250.59,18.85h32.87v4.94h-25l25,3.58v4.94l-25.31,3.62h25.31v4.33H250.59V32.73l23.9-3.15-23.9-3.25Z"/><path class="cls-1" d="M272.28,1.58h5.36c4.09,0,6.1,2,6.1,6.12V9.91c0,4.09-2,6.07-6.05,6.07h-7v-4.9h6.77c1.27,0,1.88-.61,1.88-1.93V8.5c0-1.32-.61-1.93-1.88-1.93H273A2.9,2.9,0,0,0,270.31,8l-3.71,5.08A6,6,0,0,1,260.92,16h-4.51c-4.09,0-6.11-2-6.11-6.12V7.74q0-6.06,6.06-6.07h6V6.61h-5.78a1.65,1.65,0,0,0-1.88,1.89v.61A1.65,1.65,0,0,0,256.55,11h3.66a2.84,2.84,0,0,0,2.68-1.41L266.6,4.5A6,6,0,0,1,272.28,1.58Z"/></g></g></svg>